<?xml version="1.0" encoding="UTF-8"?>
<svg xmlns="http://www.w3.org/2000/svg" xmlns:xlink="http://www.w3.org/1999/xlink" width="2836" height="2835" viewBox="0 0 2836 2835">
<path fill-rule="evenodd" fill="rgb(58.984375%, 58.984375%, 58.984375%)" fill-opacity="1" d="M 1 0.351562 L 2835.648438 0.351562 L 2835.648438 2835 L 1 2835 L 1 0.351562 "/>
<path fill-rule="evenodd" fill="rgb(100%, 100%, 100%)" fill-opacity="1" d="M 1 0.351562 L 2835.640625 0.351562 L 2835.640625 2835 L 1 2835 L 1 0.351562 "/>
<path fill-rule="evenodd" fill="rgb(98.046875%, 98.046875%, 31.005859%)" fill-opacity="1" d="M 2220.511719 306.351562 C 2237.441406 207.589844 2182.359375 223.289062 2110.609375 238.179688 C 2026.109375 255.71875 2012.300781 231.660156 1949.820312 207.140625 C 1883.078125 180.960938 1844.640625 224.078125 1789.578125 234.738281 C 1722.480469 247.71875 1667.21875 214.171875 1621.261719 207.351562 C 1559.25 198.148438 1516.359375 244.660156 1451.890625 235.570312 C 1394.890625 227.539062 1349.101562 191.019531 1286.949219 208 C 1231.640625 223.109375 1201.03125 260.710938 1130.199219 246.328125 C 1055.589844 231.179688 1025.859375 194.019531 976.300781 208.121094 C 915.570312 225.390625 874 243.488281 806.859375 223.851562 C 780.921875 216.25 750.355469 203.46875 724.878906 219.910156 C 662.828125 259.921875 720.589844 395.328125 729.507812 460.371094 C 743.421875 561.859375 695.535156 588.820312 713.871094 632.179688 C 722.902344 653.539062 735.84375 665.71875 746.78125 701.378906 C 770.238281 777.851562 745.558594 827.871094 754.746094 884.75 C 760.472656 920.171875 772.460938 929.558594 783.253906 956.160156 C 810.632812 1023.640625 770.105469 1098.890625 773.214844 1129.660156 C 779.246094 1189.378906 824.402344 1188.890625 813.488281 1284.640625 C 810.210938 1313.390625 801.855469 1348.191406 805.789062 1377.191406 C 809.589844 1405.179688 821.507812 1428.328125 825.890625 1457.359375 C 833.40625 1507.140625 806.1875 1570.949219 928.039062 1542.78125 C 960.988281 1535.171875 980.363281 1528.820312 1015.101562 1537.460938 C 1045.78125 1545.089844 1063.261719 1556.589844 1098.390625 1550.160156 C 1128.621094 1544.628906 1154.359375 1533.308594 1185.421875 1545.398438 C 1294.121094 1587.71875 1283.730469 1532.039062 1350.578125 1538.609375 C 1383.339844 1541.828125 1396.398438 1556.941406 1435.769531 1546.070312 C 1593.230469 1502.609375 1514.609375 1583.859375 1688.410156 1540.128906 C 1725.761719 1530.738281 1736.109375 1528.011719 1773.898438 1539.539062 C 1847.539062 1562 1891.980469 1515.871094 1948.359375 1530.519531 C 1976.300781 1537.78125 2001.679688 1551.339844 2030.710938 1536.648438 C 2084.699219 1509.320312 2046.070312 1448.359375 2071.371094 1377.191406 C 2080.148438 1352.488281 2090.28125 1329.5 2100.558594 1306.421875 C 2126.960938 1247.121094 2097.898438 1188.109375 2105.949219 1122.511719 C 2114.550781 1052.460938 2152.101562 1055.101562 2135.609375 960.75 C 2119.699219 869.71875 2135.171875 874.171875 2162.238281 798.398438 C 2172.449219 769.820312 2160.300781 740.738281 2155.058594 712.871094 C 2137.410156 619.148438 2215.101562 580.300781 2189.371094 463.058594 C 2170.019531 374.890625 2208.640625 375.550781 2220.511719 306.351562 "/>
<path fill-rule="evenodd" fill="rgb(0%, 0%, 0%)" fill-opacity="1" d="M 1180.96875 2510.714844 L 1181.519531 2538.476562 L 1155.980469 2530.9375 C 1161.699219 2521.675781 1170.980469 2514.628906 1180.96875 2510.714844 Z M 1689.089844 2504.589844 C 1703.519531 2505.867188 1712.660156 2513.085938 1717.070312 2523.523438 L 1683.230469 2524.425781 Z M 1012.550781 2456.554688 C 1006.449219 2423.65625 1058.378906 2437.046875 1061.550781 2469.816406 C 1063.179688 2486.671875 1048.339844 2494.890625 1034.589844 2485.46875 C 1027.03125 2480.285156 1014.460938 2466.886719 1012.550781 2456.554688 Z M 1854.96875 2458.730469 C 1839.761719 2484.355469 1790.640625 2481.921875 1807.78125 2450.753906 C 1825.53125 2418.472656 1870.890625 2431.894531 1854.96875 2458.730469 Z M 1145.539062 2255.679688 L 1145.988281 2237.457031 L 1145.929688 2217.902344 L 1146.488281 2196.878906 L 1146.980469 2170.460938 C 1169.039062 2176.070312 1167.441406 2174.644531 1188.839844 2169.917969 L 1188.148438 2198.902344 L 1188.191406 2217.773438 L 1187.988281 2237.15625 L 1187.921875 2256.855469 C 1191.839844 2289.679688 1193.480469 2330.1875 1194.890625 2363.039062 C 1195.988281 2388.652344 1199.71875 2413.59375 1159.191406 2413.355469 C 1147.289062 2413.285156 1140.949219 2411.632812 1137.039062 2404.214844 C 1131.019531 2389.1875 1144.261719 2281.425781 1145.539062 2255.679688 Z M 1679.488281 2252.296875 L 1679.199219 2235.003906 L 1681.070312 2167.460938 C 1704.441406 2170.90625 1703.800781 2170.027344 1725.570312 2166.585938 L 1726.320312 2197.097656 L 1726.75 2216.816406 L 1726.140625 2236.027344 L 1726.921875 2253.316406 C 1728.640625 2287.613281 1727.371094 2325.578125 1730.328125 2359.234375 C 1732.039062 2378.699219 1731.210938 2392.277344 1716.378906 2398.441406 C 1695.78125 2406.996094 1683.839844 2395.757812 1672.949219 2388.644531 C 1672.46875 2370.429688 1676.980469 2343.628906 1677.691406 2322.972656 C 1678.5 2299.421875 1678.628906 2275.894531 1679.488281 2252.296875 Z M 1194.410156 2036.769531 L 1191.550781 2126.175781 C 1191.398438 2130.253906 1191.441406 2136.496094 1191 2140.292969 C 1188.609375 2160.515625 1165.148438 2156.597656 1146.640625 2151.859375 L 1144.570312 2040.402344 Z M 1725.261719 2152.300781 C 1712.878906 2154.675781 1697.78125 2158.1875 1684.289062 2153.105469 C 1675.851562 2149.925781 1677.589844 2147.992188 1677.660156 2137.148438 C 1677.699219 2129.765625 1677.589844 2122.601562 1677.378906 2115.21875 C 1676.53125 2085.402344 1675.171875 2056.414062 1674.941406 2026.871094 L 1728.410156 2026.183594 Z M 1046.910156 2001.707031 C 1046.910156 1989.539062 1046.730469 1977.351562 1046.960938 1965.1875 C 1047.398438 1942.808594 1044.898438 1940.871094 1054.691406 1939.527344 C 1070.710938 1937.335938 1106.378906 1938.796875 1124.398438 1938.664062 C 1159.160156 1938.40625 1235.738281 1933.890625 1266.210938 1939.015625 L 1269.070312 2001.261719 C 1236.988281 2014.144531 1194.691406 2017.695312 1157.011719 2017.191406 C 1101.121094 2016.441406 1095.210938 2011.902344 1046.910156 2001.707031 Z M 1821.46875 1933.425781 L 1825.628906 1990.261719 C 1761.421875 2010.6875 1675.671875 2014.179688 1608.761719 1995.929688 C 1584.359375 1989.269531 1601.488281 1975.742188 1605.050781 1933.871094 Z M 1378.828125 1786.921875 C 1381.421875 1778.179688 1389.960938 1763.648438 1394.160156 1754.488281 L 1437.480469 1653.78125 C 1457.148438 1663.421875 1457.371094 1662.570312 1476.609375 1655.171875 C 1483.078125 1662.921875 1533.570312 1779.171875 1535.589844 1791.800781 C 1530.121094 1795.070312 1497.941406 1824.308594 1492.910156 1829.339844 C 1485.839844 1836.394531 1457.039062 1862.394531 1450.519531 1865.320312 Z M 1402.679688 1701.539062 L 1387.578125 1740.148438 L 1237.921875 1739.449219 L 1238.949219 1796.398438 C 1257.898438 1798.941406 1290.898438 1797.011719 1311.378906 1797.011719 C 1345.429688 1797.011719 1364.269531 1791.980469 1376.78125 1806.300781 C 1387.261719 1818.300781 1436.78125 1875.367188 1448.351562 1880.023438 C 1455.328125 1880.855469 1517.46875 1824.039062 1526.640625 1815.261719 C 1527.660156 1814.28125 1545.679688 1798.039062 1546.089844 1797.820312 C 1554.011719 1793.480469 1636.078125 1795.96875 1648.890625 1795.910156 L 1648.238281 1739.28125 L 1526.128906 1736.960938 L 1511.789062 1700.238281 L 2006.398438 1699.988281 L 1999.390625 1903.515625 C 1985.921875 1907.472656 1466.730469 1909.8125 1437.480469 1910.203125 C 1298.851562 1912.046875 1152.238281 1913.90625 1013.519531 1913.773438 C 968.019531 1913.730469 919.832031 1916.386719 875.003906 1914.574219 C 870.394531 1884.675781 872.109375 1840.1875 871.558594 1808.671875 C 870.929688 1772.558594 869.710938 1737.210938 868.726562 1700.261719 Z M 1417.421875 1572.679688 C 1409.378906 1572.660156 1405.441406 1572.910156 1400.789062 1575.570312 C 1392.738281 1584.941406 1339.921875 1657.671875 1336.261719 1666.039062 C 1319.808594 1660.96875 1233.699219 1595.769531 1207.46875 1579.101562 L 1175.191406 1568.109375 C 1202.5 1588 1227.238281 1606.261719 1252.820312 1625.898438 C 1265.898438 1635.929688 1319.191406 1679.121094 1335.289062 1681.078125 C 1345.101562 1678.769531 1389.160156 1610.660156 1404.859375 1596.128906 C 1406.890625 1599.960938 1425.609375 1643.359375 1425.691406 1643.941406 C 1426.429688 1649.78125 1420.148438 1663.339844 1417.808594 1669.441406 C 1414.699219 1677.578125 1412.480469 1685.851562 1404.859375 1690.351562 C 1314.988281 1690.308594 1225.320312 1688.71875 1135.269531 1689.128906 C 1090.53125 1689.328125 896.394531 1692.578125 868.835938 1689.960938 L 865.601562 1584.191406 L 863.429688 1572.078125 L 846.726562 1568.648438 C 848.660156 1630.628906 847.25 1693.429688 849.765625 1755.351562 C 851.128906 1788.800781 851.964844 1917.011719 856.039062 1937.808594 C 911.148438 1942.691406 973.027344 1937.425781 1029.179688 1938.632812 C 1028.910156 1959.628906 1015.339844 2014.195312 1036.5 2022.683594 C 1055.238281 2030.191406 1096.558594 2035.492188 1119.058594 2038.140625 C 1132.46875 2078.152344 1127.25 2320.882812 1122.191406 2373.9375 C 1113.789062 2380.960938 1103.75 2383.992188 1097.300781 2392.445312 C 1091.988281 2399.410156 1089.289062 2414.628906 1083.238281 2423.679688 C 1059.96875 2427.589844 1054.03125 2407.964844 1028.261719 2405.308594 C 922.53125 2394.417969 915.835938 2597.320312 1052.660156 2597.242188 C 1079.308594 2597.226562 1091.910156 2595.242188 1110.738281 2582.007812 C 1121.210938 2574.648438 1142.269531 2553.589844 1147.359375 2542.574219 C 1176.738281 2546.804688 1174.441406 2559.363281 1207.210938 2543.707031 C 1264.398438 2516.386719 1257.121094 2511.066406 1245.449219 2491.808594 C 1239.890625 2482.636719 1244.121094 2481.960938 1248.53125 2474.25 C 1265.078125 2445.308594 1259.339844 2411.914062 1241.140625 2385.472656 C 1228.558594 2367.199219 1222.398438 2372.011719 1209.640625 2360.894531 C 1204.039062 2317.195312 1203.96875 2243.238281 1205.210938 2197.746094 L 1210.558594 2036.195312 C 1235.21875 2027.054688 1255.5 2029.757812 1275.710938 2014.363281 C 1289.351562 2003.972656 1282.808594 1968.363281 1285.238281 1937.070312 L 1583.058594 1934.351562 C 1581.300781 1958.304688 1566.398438 1985.179688 1584.28125 2003.1875 C 1601.75 2020.78125 1646.191406 2013.855469 1650.039062 2026.632812 C 1650.761719 2029.007812 1650.921875 2029.109375 1651.421875 2031.914062 C 1656.058594 2057.753906 1662.25 2166.0625 1662.351562 2186.964844 C 1662.648438 2246.589844 1659.398438 2302.269531 1656.710938 2361.007812 C 1637.859375 2372.640625 1624.128906 2379.820312 1620.398438 2408.933594 C 1614.519531 2454.890625 1640.730469 2454.691406 1627.75 2477.117188 C 1620.570312 2489.515625 1617.710938 2497 1627.800781 2507.617188 C 1641.238281 2521.746094 1661.140625 2539.847656 1682.609375 2538.285156 C 1696.058594 2537.304688 1710.75 2535.488281 1724.460938 2536.355469 C 1737.820312 2556.542969 1740.109375 2564.246094 1758.378906 2576.980469 C 1813.570312 2615.449219 1880.78125 2597.476562 1911.070312 2543.167969 C 1929.871094 2509.464844 1923.019531 2450.167969 1902.121094 2422.398438 C 1891.519531 2408.316406 1877.609375 2397.503906 1855.449219 2392.800781 C 1827.789062 2386.933594 1815.351562 2396.265625 1794.140625 2403.710938 C 1786.488281 2391.96875 1784.460938 2386.597656 1774.761719 2377.976562 C 1764.019531 2368.433594 1757.121094 2369.085938 1744.859375 2362.726562 C 1743.21875 2333.851562 1740.871094 2122.761719 1742.230469 2097.78125 C 1747.03125 2009.367188 1743.101562 2023.609375 1764.511719 2020.269531 C 1774.261719 2018.746094 1782.628906 2016.5 1792.578125 2013.746094 C 1861.820312 1994.578125 1843.988281 2007.320312 1841.96875 1932.90625 C 1873.03125 1931.105469 2002.460938 1933.875 2018.691406 1926.972656 C 2035.5 1905.847656 2027.160156 1616.078125 2031.019531 1563.390625 C 2023.421875 1562.621094 2015.789062 1563.320312 2009.609375 1566.511719 L 2006.46875 1686.75 C 1981.46875 1690.570312 1533.820312 1689.53125 1505.070312 1689 C 1489.351562 1644.96875 1484.640625 1658.949219 1498.46875 1634.839844 C 1512.519531 1610.351562 1517.210938 1588.230469 1521.890625 1580.871094 C 1526.101562 1587.128906 1535.539062 1596.960938 1540.871094 1603.128906 C 1546.789062 1609.980469 1553.710938 1617.671875 1559.421875 1623.710938 C 1612.019531 1679.351562 1573.929688 1678.519531 1675.628906 1616.351562 C 1701.851562 1600.320312 1727.519531 1583.480469 1754.410156 1567 C 1751.238281 1561.289062 1743.878906 1561.101562 1736.851562 1561.210938 C 1720.859375 1575.609375 1689.730469 1592.75 1669.589844 1605.949219 L 1600.539062 1649.238281 L 1561.339844 1606.488281 C 1549.289062 1593.269531 1535.328125 1578.308594 1526.519531 1561.320312 C 1522.410156 1559.371094 1518.199219 1556.929688 1511.539062 1555.949219 C 1507.25 1583.550781 1488.371094 1638.050781 1467.289062 1642.921875 C 1445.121094 1648.050781 1435.769531 1630.589844 1429.078125 1617.078125 C 1423.128906 1605.078125 1408.53125 1584.75 1417.421875 1572.679688 "/>
<path fill-rule="evenodd" fill="rgb(61.914062%, 39.988708%, 7.006836%)" fill-opacity="1" d="M 946.78125 1743.199219 L 1129.300781 1742.671875 C 1133.351562 1807.808594 1138.238281 1796.320312 1083.101562 1797.769531 C 1051.511719 1798.609375 972.382812 1799.421875 947.359375 1796.820312 Z M 1753.378906 1790.769531 C 1752.101562 1778.761719 1751.949219 1746.308594 1756.171875 1736.179688 C 1800.300781 1732.121094 1890.621094 1731.460938 1934.390625 1735.820312 C 1937.871094 1748.101562 1936.410156 1775.628906 1935.890625 1789.378906 Z M 868.726562 1700.261719 C 869.710938 1737.210938 870.929688 1772.558594 871.558594 1808.671875 C 872.109375 1840.1875 870.394531 1884.675781 875.003906 1914.574219 C 919.832031 1916.386719 968.019531 1913.730469 1013.519531 1913.773438 C 1152.238281 1913.90625 1298.851562 1912.046875 1437.480469 1910.203125 C 1466.730469 1909.8125 1985.921875 1907.472656 1999.390625 1903.515625 L 2006.398438 1699.988281 L 1511.789062 1700.238281 L 1526.128906 1736.960938 L 1648.238281 1739.28125 L 1648.890625 1795.910156 C 1636.078125 1795.96875 1554.011719 1793.480469 1546.089844 1797.820312 C 1545.679688 1798.039062 1527.660156 1814.28125 1526.640625 1815.261719 C 1517.46875 1824.039062 1455.328125 1880.855469 1448.351562 1880.023438 C 1436.78125 1875.367188 1387.261719 1818.300781 1376.78125 1806.300781 C 1364.269531 1791.980469 1345.429688 1797.011719 1311.378906 1797.011719 C 1290.898438 1797.011719 1257.898438 1798.941406 1238.949219 1796.398438 L 1237.921875 1739.449219 L 1387.578125 1740.148438 L 1402.679688 1701.539062 L 868.726562 1700.261719 "/>
<path fill-rule="evenodd" fill="rgb(50.976562%, 63.084412%, 13.989258%)" fill-opacity="1" d="M 2220.511719 306.351562 C 2208.640625 375.550781 2170.019531 374.890625 2189.371094 463.058594 C 2215.101562 580.300781 2137.410156 619.148438 2155.058594 712.871094 C 2160.300781 740.738281 2172.449219 769.820312 2162.238281 798.398438 C 2135.171875 874.171875 2119.699219 869.71875 2135.609375 960.75 C 2152.101562 1055.101562 2114.550781 1052.460938 2105.949219 1122.511719 C 2097.898438 1188.109375 2126.960938 1247.121094 2100.558594 1306.421875 C 2090.28125 1329.5 2080.148438 1352.488281 2071.371094 1377.191406 C 2046.070312 1448.359375 2084.699219 1509.320312 2030.710938 1536.648438 C 2001.679688 1551.339844 1976.300781 1537.78125 1948.359375 1530.519531 C 1891.980469 1515.871094 1847.539062 1562 1773.898438 1539.539062 C 1736.109375 1528.011719 1725.761719 1530.738281 1688.410156 1540.128906 C 1514.609375 1583.859375 1593.230469 1502.609375 1435.769531 1546.070312 C 1396.398438 1556.941406 1383.339844 1541.828125 1350.578125 1538.609375 C 1283.730469 1532.039062 1294.121094 1587.71875 1185.421875 1545.398438 C 1154.359375 1533.308594 1128.621094 1544.628906 1098.390625 1550.160156 C 1063.261719 1556.589844 1045.78125 1545.089844 1015.101562 1537.460938 C 980.363281 1528.820312 960.988281 1535.171875 928.039062 1542.78125 C 806.1875 1570.949219 833.40625 1507.140625 825.890625 1457.359375 C 821.507812 1428.328125 809.589844 1405.179688 805.789062 1377.191406 C 801.855469 1348.191406 810.210938 1313.390625 813.488281 1284.640625 C 824.402344 1188.890625 779.246094 1189.378906 773.214844 1129.660156 C 770.105469 1098.890625 810.632812 1023.640625 783.253906 956.160156 C 772.460938 929.558594 760.472656 920.171875 754.746094 884.75 C 745.558594 827.871094 770.238281 777.851562 746.78125 701.378906 C 735.84375 665.71875 722.902344 653.539062 713.871094 632.179688 C 695.535156 588.820312 743.421875 561.859375 729.507812 460.371094 C 720.589844 395.328125 662.828125 259.921875 724.878906 219.910156 C 750.355469 203.46875 780.921875 216.25 806.859375 223.851562 C 874 243.488281 915.570312 225.390625 976.300781 208.121094 C 1025.859375 194.019531 1055.589844 231.179688 1130.199219 246.328125 C 1201.03125 260.710938 1231.640625 223.109375 1286.949219 208 C 1349.101562 191.019531 1394.890625 227.539062 1451.890625 235.570312 C 1516.359375 244.660156 1559.25 198.148438 1621.261719 207.351562 C 1667.21875 214.171875 1722.480469 247.71875 1789.578125 234.738281 C 1844.640625 224.078125 1883.078125 180.960938 1949.820312 207.140625 C 2012.300781 231.660156 2026.109375 255.71875 2110.609375 238.179688 C 2182.359375 223.289062 2237.441406 207.589844 2220.511719 306.351562 Z M 774.289062 1205.359375 C 780.554688 1211.75 784.855469 1229.890625 785.894531 1240.199219 C 791.667969 1251.789062 794.503906 1292.828125 793.320312 1307.730469 C 791.394531 1331.941406 777.496094 1353.738281 780.433594 1376.050781 C 782.9375 1395.058594 798.410156 1413.769531 802.550781 1432.851562 C 806.699219 1451.980469 799.042969 1486.679688 796.050781 1506.761719 C 801.746094 1536.210938 803.453125 1531.109375 815.242188 1549.929688 C 817.59375 1550.839844 841.75 1565.378906 846.726562 1568.648438 L 863.429688 1572.078125 L 865.601562 1584.191406 L 865.578125 1573.011719 C 929.34375 1574.378906 954.082031 1538.5 1021.058594 1564.179688 C 1110.621094 1598.519531 1115.511719 1535.140625 1175.191406 1568.109375 L 1207.46875 1579.101562 C 1299.660156 1583.398438 1307.691406 1552.699219 1353.121094 1562.460938 C 1359.921875 1563.929688 1396 1571.398438 1400.789062 1575.570312 C 1405.441406 1572.910156 1409.378906 1572.660156 1417.421875 1572.679688 C 1440.121094 1569.019531 1491.328125 1541.058594 1511.539062 1555.949219 C 1518.199219 1556.929688 1522.410156 1559.371094 1526.519531 1561.320312 C 1539.78125 1562.898438 1558.800781 1570.898438 1573.839844 1574.539062 C 1593.289062 1579.238281 1611.71875 1580.828125 1633.050781 1578.089844 C 1657.378906 1574.96875 1719.738281 1549.460938 1736.851562 1561.210938 C 1743.878906 1561.101562 1751.238281 1561.289062 1754.410156 1567 C 1773.628906 1561.800781 1768.140625 1586.609375 1880.378906 1555.75 C 1913.480469 1546.648438 1911.488281 1548.351562 1941.519531 1559.101562 C 1966.390625 1568 1981.730469 1566.871094 2009.609375 1566.511719 C 2015.789062 1563.320312 2023.421875 1562.621094 2031.019531 1563.390625 C 2038.621094 1557.121094 2045.109375 1557.519531 2052.800781 1550.019531 C 2057.660156 1545.28125 2066.011719 1534.238281 2070.691406 1530.949219 C 2074.128906 1520.421875 2080.53125 1511.75 2083.789062 1498.660156 L 2104.5 1495.820312 L 2084.761719 1497.210938 C 2088.601562 1460.570312 2082.78125 1462.871094 2078.859375 1432.429688 C 2074.390625 1397.671875 2105.078125 1369.621094 2121.480469 1327.328125 C 2131.589844 1301.25 2128.140625 1289.679688 2133.980469 1265.140625 C 2131.121094 1251.988281 2131.109375 1238.121094 2128.160156 1224.71875 C 2125.101562 1210.769531 2121.621094 1199.351562 2121.199219 1185.480469 C 2113.328125 1146.339844 2135.921875 1114.929688 2146.109375 1082.390625 C 2187.820312 949.128906 2110.410156 968.328125 2164.089844 867.75 C 2184.300781 829.890625 2191.160156 811.859375 2182.320312 761.761719 C 2174.539062 717.699219 2166.089844 694.089844 2184.929688 651.609375 C 2209.609375 595.96875 2230.421875 573.699219 2218.308594 495.109375 C 2215.769531 478.589844 2207.480469 455.238281 2207.460938 441.058594 C 2207.429688 421.699219 2217.011719 407.5 2224.480469 393.308594 C 2232.410156 378.238281 2237.230469 363.058594 2240.921875 344.671875 C 2257.679688 260.980469 2232.070312 184.128906 2138.128906 209.078125 C 2009.160156 243.339844 1999.511719 187.738281 1924.550781 184.691406 C 1842.671875 181.351562 1821.359375 223.96875 1698.058594 204.378906 C 1582.058594 185.960938 1628.03125 188.808594 1527.78125 207.601562 C 1508.261719 211.25 1487.988281 211.421875 1467.96875 212.078125 C 1412.761719 213.921875 1404.859375 207.460938 1358.628906 193.898438 C 1319.488281 182.410156 1284.171875 194.789062 1249.738281 205.441406 C 1222.890625 213.738281 1167.289062 221.019531 1137.410156 220.851562 C 1050.128906 220.328125 1074 168.230469 924.046875 201.519531 C 874.585938 212.5 857.347656 210.011719 807.785156 200.988281 C 771.761719 194.441406 727.484375 189.890625 701.6875 211.960938 C 677.320312 232.820312 665.597656 263.878906 668.179688 308.46875 C 673.074219 392.988281 715.585938 431.058594 701.929688 527.640625 C 696.753906 564.25 685.023438 605.191406 694.496094 642.660156 C 703.914062 679.910156 722.652344 702.578125 729.8125 737.980469 C 737.914062 778.03125 731.835938 821.660156 731.957031 862.921875 C 732.097656 910.730469 747.261719 929.449219 756.976562 969.460938 C 771.421875 1028.960938 750.476562 1093.261719 759.710938 1153.828125 C 762.761719 1173.839844 772.359375 1190.269531 774.289062 1205.359375 "/>
<path fill-rule="evenodd" fill="rgb(100%, 100%, 100%)" fill-opacity="1" d="M 865.601562 1584.191406 L 868.835938 1689.960938 C 896.394531 1692.578125 1090.53125 1689.328125 1135.269531 1689.128906 C 1225.320312 1688.71875 1314.988281 1690.308594 1404.859375 1690.351562 C 1412.480469 1685.851562 1414.699219 1677.578125 1417.808594 1669.441406 C 1420.148438 1663.339844 1426.429688 1649.78125 1425.691406 1643.941406 C 1425.609375 1643.359375 1406.890625 1599.960938 1404.859375 1596.128906 C 1389.160156 1610.660156 1345.101562 1678.769531 1335.289062 1681.078125 C 1319.191406 1679.121094 1265.898438 1635.929688 1252.820312 1625.898438 C 1227.238281 1606.261719 1202.5 1588 1175.191406 1568.109375 C 1115.511719 1535.140625 1110.621094 1598.519531 1021.058594 1564.179688 C 954.082031 1538.5 929.34375 1574.378906 865.578125 1573.011719 L 865.601562 1584.191406 "/>
<path fill-rule="evenodd" fill="rgb(100%, 100%, 100%)" fill-opacity="1" d="M 1754.410156 1567 C 1727.519531 1583.480469 1701.851562 1600.320312 1675.628906 1616.351562 C 1573.929688 1678.519531 1612.019531 1679.351562 1559.421875 1623.710938 C 1553.710938 1617.671875 1546.789062 1609.980469 1540.871094 1603.128906 C 1535.539062 1596.960938 1526.101562 1587.128906 1521.890625 1580.871094 C 1517.210938 1588.230469 1512.519531 1610.351562 1498.46875 1634.839844 C 1484.640625 1658.949219 1489.351562 1644.96875 1505.070312 1689 C 1533.820312 1689.53125 1981.46875 1690.570312 2006.46875 1686.75 L 2009.609375 1566.511719 C 1981.730469 1566.871094 1966.390625 1568 1941.519531 1559.101562 C 1911.488281 1548.351562 1913.480469 1546.648438 1880.378906 1555.75 C 1768.140625 1586.609375 1773.628906 1561.800781 1754.410156 1567 "/>
<path fill-rule="evenodd" fill="rgb(0%, 0%, 0%)" fill-opacity="1" d="M 2032.160156 2099.164062 C 2034.640625 2088.835938 2044.96875 2071.464844 2049.558594 2064.175781 C 2072.648438 2027.449219 2069.460938 2030.6875 2071.429688 1982.5 C 2073.320312 1936.238281 2110.609375 1950.671875 2115.199219 1923.503906 C 2120.53125 1891.949219 2110.828125 1620.539062 2107.671875 1567.339844 C 2106.828125 1553.058594 2103.171875 1535.351562 2103.289062 1522.449219 L 2133.730469 1517.148438 C 2136.851562 1585.5 2142.589844 1653.539062 2146.25 1721.699219 C 2149.410156 1780.738281 2146.691406 1871.761719 2161.148438 1924.234375 C 2164.308594 1935.695312 2165.410156 1932.539062 2173.441406 1940.199219 C 2188.808594 1954.867188 2195.101562 1969.914062 2205.601562 1988.441406 C 2222.660156 2018.53125 2231.761719 2022.757812 2267.351562 2035.417969 C 2315.550781 2052.570312 2284.601562 2090.417969 2257.558594 2080.09375 C 2239 2073.011719 2223.710938 2056.0625 2209.140625 2045.738281 C 2176.351562 2022.480469 2196.558594 2070.722656 2204.550781 2085.160156 C 2220.789062 2114.503906 2251.640625 2118.859375 2273.351562 2135.960938 C 2282.308594 2143.023438 2294.308594 2164.050781 2280.148438 2177.464844 C 2258.839844 2197.65625 2214.929688 2147.6875 2208.078125 2140.300781 C 2199.28125 2130.808594 2189.589844 2117.628906 2181.359375 2106.203125 C 2176.71875 2099.757812 2173.269531 2094.890625 2168.46875 2088.621094 C 2162.980469 2081.453125 2161.828125 2077.179688 2152.761719 2076.394531 C 2140.609375 2095.480469 2153.359375 2140.453125 2161.050781 2159.097656 C 2165.339844 2169.507812 2176.988281 2183.699219 2171.539062 2196.761719 C 2166.421875 2209.039062 2147.480469 2207.511719 2137.300781 2200.265625 C 2094.898438 2170.101562 2138.050781 2050.902344 2091.890625 2045.046875 C 2073.179688 2066.578125 2086.328125 2105.757812 2058.960938 2117.164062 C 2044.210938 2123.3125 2028.191406 2115.679688 2032.160156 2099.164062 Z M 2133.980469 1265.140625 C 2164.460938 1308.71875 2190.148438 1400.808594 2187.070312 1467.300781 C 2166.238281 1481.828125 2137.351562 1493.511719 2104.5 1495.820312 L 2083.789062 1498.660156 C 2080.53125 1511.75 2074.128906 1520.421875 2070.691406 1530.949219 C 2081.820312 1540.441406 2078.890625 1539.289062 2082.269531 1569.78125 C 2093.351562 1669.71875 2093.21875 1769.449219 2098.140625 1869.484375 C 2099.171875 1890.46875 2102.28125 1900.683594 2089.71875 1915.171875 C 2072.308594 1935.253906 2055.199219 1940.417969 2053.109375 1982.636719 C 2050.53125 2034.699219 2056.78125 2029.710938 2032.449219 2068.835938 C 2017.019531 2093.636719 2005.988281 2130.691406 2042 2134.835938 C 2079.070312 2139.101562 2084.980469 2107.007812 2091.789062 2078.054688 C 2113.75 2106.386719 2079.660156 2191.371094 2131.839844 2218.742188 C 2157.019531 2231.945312 2183.980469 2225.238281 2187.628906 2197.730469 C 2191.289062 2170.078125 2171.378906 2151.03125 2169.921875 2124.132812 C 2190.390625 2140.835938 2252.761719 2235.429688 2294.578125 2189.605469 C 2318.140625 2163.789062 2297.050781 2131.230469 2279.410156 2119.046875 C 2257.589844 2103.96875 2224.5 2095.949219 2215.71875 2072.988281 C 2235.859375 2080.660156 2260.808594 2117.851562 2292.289062 2098.160156 C 2320.449219 2080.542969 2316.949219 2047.25 2291.769531 2028.433594 C 2266.398438 2009.472656 2241.21875 2016.300781 2222.589844 1988.871094 C 2215.28125 1978.117188 2210.339844 1965.421875 2203.921875 1953.160156 C 2178.570312 1904.71875 2170.140625 1938.085938 2167.808594 1826.011719 C 2165.46875 1713.320312 2161.878906 1626.710938 2154.308594 1512.988281 C 2177.691406 1493.828125 2210.710938 1501.449219 2208.671875 1450.410156 C 2206.03125 1384.308594 2189.679688 1320.351562 2161.949219 1262.488281 C 2149.410156 1236.328125 2133.289062 1211.328125 2121.199219 1185.480469 C 2121.621094 1199.351562 2125.101562 1210.769531 2128.160156 1224.71875 C 2131.109375 1238.121094 2131.121094 1251.988281 2133.980469 1265.140625 "/>
<path fill-rule="evenodd" fill="rgb(0%, 0%, 0%)" fill-opacity="1" d="M 792.3125 2054.5 C 746.027344 2062.882812 782.164062 2169.277344 750.992188 2202.726562 C 739.40625 2215.160156 723.253906 2221.152344 709.242188 2207 C 701.015625 2191.007812 746.816406 2134.382812 731.414062 2084.902344 C 721.121094 2085.910156 720.097656 2089.914062 714.691406 2096.855469 C 698.402344 2117.78125 631.214844 2212.734375 601.261719 2184.023438 C 586.585938 2169.960938 599.671875 2150.441406 608.675781 2142.996094 C 621.152344 2132.679688 632.859375 2129.421875 647.816406 2121.277344 C 661.644531 2113.75 671.351562 2105.082031 678.453125 2093.226562 C 683.914062 2084.105469 695.046875 2060.761719 692.972656 2048.714844 C 674.34375 2043.910156 652.730469 2078.035156 624.554688 2087.25 C 607.679688 2092.765625 594.429688 2083 591.835938 2069.039062 C 588.734375 2052.332031 603.929688 2046.15625 618.144531 2041.5 C 683.785156 2019.996094 669.730469 2000.601562 700.738281 1961.105469 C 717.277344 1940.035156 721.164062 1948.527344 725.886719 1929.726562 C 740.710938 1870.722656 738.742188 1794.171875 743.980469 1730.519531 C 746.242188 1703.011719 757.476562 1539.660156 761.324219 1527.660156 L 791.40625 1532.53125 C 781.558594 1605.328125 767.222656 1857.269531 770.652344 1928.296875 C 772.195312 1960.28125 811.085938 1947.761719 813.449219 1989.078125 C 814.527344 2007.929688 809.871094 2019.953125 815.933594 2038.882812 C 824.359375 2065.195312 845.949219 2089.671875 850.335938 2109.324219 C 854.457031 2127.800781 836.824219 2134.910156 822.871094 2127.613281 C 799.679688 2115.484375 805.574219 2075.445312 792.3125 2054.5 Z M 815.242188 1549.929688 C 803.453125 1531.109375 801.746094 1536.210938 796.050781 1506.761719 C 764.832031 1503.71875 728.234375 1492.558594 708.964844 1476.03125 C 702.421875 1437.851562 720.285156 1374.789062 732.316406 1342.640625 C 746.621094 1304.421875 765.492188 1269.871094 785.894531 1240.199219 C 784.855469 1229.890625 780.554688 1211.75 774.289062 1205.359375 C 770.570312 1209.671875 738.175781 1268.488281 734.109375 1277.019531 C 708.089844 1331.578125 689.871094 1396.449219 686.769531 1458.621094 C 685.65625 1480.949219 689.167969 1491.578125 701.980469 1500.578125 C 712.992188 1508.308594 731.3125 1515.070312 739.851562 1521.679688 C 738.234375 1553.550781 732.941406 1588.339844 730.703125 1621.621094 C 728.359375 1656.421875 727.046875 1691.511719 725.0625 1726.761719 C 722.648438 1769.738281 724.539062 1896.648438 705.84375 1927.128906 C 698.511719 1939.085938 690.347656 1947.011719 683.03125 1958.671875 C 675.566406 1970.578125 672.242188 1981.589844 663.9375 1993.90625 C 642.644531 2025.492188 622.109375 2013.589844 593.40625 2034.253906 C 561.910156 2056.929688 567.871094 2088.765625 589.890625 2103.980469 C 618.945312 2124.0625 648.492188 2088.289062 667.953125 2080.34375 C 657.464844 2103.652344 626.15625 2109.019531 603.671875 2124.964844 C 545.273438 2166.371094 590.765625 2248.277344 659.140625 2184.792969 C 674.605469 2170.4375 684.144531 2162.972656 700.453125 2145.65625 C 701.53125 2144.507812 711.894531 2132.140625 712.03125 2131.890625 C 713.996094 2152.039062 692.007812 2175.734375 692.984375 2202.253906 C 694.054688 2231.421875 721.09375 2241.464844 746.714844 2228.902344 C 796.40625 2204.539062 772.738281 2139.691406 790.132812 2087.402344 C 797.992188 2101.175781 794.128906 2145.871094 835.25 2145.976562 C 873.980469 2146.074219 867.753906 2108.007812 853.421875 2083.964844 C 831.769531 2047.640625 832.0625 2052.480469 831.992188 2002.160156 C 831.925781 1953.265625 819.03125 1951.304688 799.308594 1929.441406 C 780.605469 1908.710938 789.828125 1874.160156 791.558594 1841.363281 C 797.132812 1735.78125 802.046875 1656.589844 815.242188 1549.929688 "/>
<path fill-rule="evenodd" fill="rgb(98.046875%, 98.046875%, 31.005859%)" fill-opacity="1" d="M 792.3125 2054.5 C 805.574219 2075.445312 799.679688 2115.484375 822.871094 2127.613281 C 836.824219 2134.910156 854.457031 2127.800781 850.335938 2109.324219 C 845.949219 2089.671875 824.359375 2065.195312 815.933594 2038.882812 C 809.871094 2019.953125 814.527344 2007.929688 813.449219 1989.078125 C 811.085938 1947.761719 772.195312 1960.28125 770.652344 1928.296875 C 767.222656 1857.269531 781.558594 1605.328125 791.40625 1532.53125 L 761.324219 1527.660156 C 757.476562 1539.660156 746.242188 1703.011719 743.980469 1730.519531 C 738.742188 1794.171875 740.710938 1870.722656 725.886719 1929.726562 C 721.164062 1948.527344 717.277344 1940.035156 700.738281 1961.105469 C 669.730469 2000.601562 683.785156 2019.996094 618.144531 2041.5 C 603.929688 2046.15625 588.734375 2052.332031 591.835938 2069.039062 C 594.429688 2083 607.679688 2092.765625 624.554688 2087.25 C 652.730469 2078.035156 674.34375 2043.910156 692.972656 2048.714844 C 695.046875 2060.761719 683.914062 2084.105469 678.453125 2093.226562 C 671.351562 2105.082031 661.644531 2113.75 647.816406 2121.277344 C 632.859375 2129.421875 621.152344 2132.679688 608.675781 2142.996094 C 599.671875 2150.441406 586.585938 2169.960938 601.261719 2184.023438 C 631.214844 2212.734375 698.402344 2117.78125 714.691406 2096.855469 C 720.097656 2089.914062 721.121094 2085.910156 731.414062 2084.902344 C 746.816406 2134.382812 701.015625 2191.007812 709.242188 2207 C 723.253906 2221.152344 739.40625 2215.160156 750.992188 2202.726562 C 782.164062 2169.277344 746.027344 2062.882812 792.3125 2054.5 "/>
<path fill-rule="evenodd" fill="rgb(98.046875%, 98.046875%, 31.005859%)" fill-opacity="1" d="M 2103.289062 1522.449219 C 2103.171875 1535.351562 2106.828125 1553.058594 2107.671875 1567.339844 C 2110.828125 1620.539062 2120.53125 1891.949219 2115.199219 1923.503906 C 2110.609375 1950.671875 2073.320312 1936.238281 2071.429688 1982.5 C 2069.460938 2030.6875 2072.648438 2027.449219 2049.558594 2064.175781 C 2044.96875 2071.464844 2034.640625 2088.835938 2032.160156 2099.164062 C 2028.191406 2115.679688 2044.210938 2123.3125 2058.960938 2117.164062 C 2086.328125 2105.757812 2073.179688 2066.578125 2091.890625 2045.046875 C 2138.050781 2050.902344 2094.898438 2170.101562 2137.300781 2200.265625 C 2147.480469 2207.511719 2166.421875 2209.039062 2171.539062 2196.761719 C 2176.988281 2183.699219 2165.339844 2169.507812 2161.050781 2159.097656 C 2153.359375 2140.453125 2140.609375 2095.480469 2152.761719 2076.394531 C 2161.828125 2077.179688 2162.980469 2081.453125 2168.46875 2088.621094 C 2173.269531 2094.890625 2176.71875 2099.757812 2181.359375 2106.203125 C 2189.589844 2117.628906 2199.28125 2130.808594 2208.078125 2140.300781 C 2214.929688 2147.6875 2258.839844 2197.65625 2280.148438 2177.464844 C 2294.308594 2164.050781 2282.308594 2143.023438 2273.351562 2135.960938 C 2251.640625 2118.859375 2220.789062 2114.503906 2204.550781 2085.160156 C 2196.558594 2070.722656 2176.351562 2022.480469 2209.140625 2045.738281 C 2223.710938 2056.0625 2239 2073.011719 2257.558594 2080.09375 C 2284.601562 2090.417969 2315.550781 2052.570312 2267.351562 2035.417969 C 2231.761719 2022.757812 2222.660156 2018.53125 2205.601562 1988.441406 C 2195.101562 1969.914062 2188.808594 1954.867188 2173.441406 1940.199219 C 2165.410156 1932.539062 2164.308594 1935.695312 2161.148438 1924.234375 C 2146.691406 1871.761719 2149.410156 1780.738281 2146.25 1721.699219 C 2142.589844 1653.539062 2136.851562 1585.5 2133.730469 1517.148438 L 2103.289062 1522.449219 "/>
<path fill-rule="evenodd" fill="rgb(83.984375%, 11.009216%, 7.006836%)" fill-opacity="1" d="M 1378.828125 1786.921875 L 1450.519531 1865.320312 C 1457.039062 1862.394531 1485.839844 1836.394531 1492.910156 1829.339844 C 1497.941406 1824.308594 1530.121094 1795.070312 1535.589844 1791.800781 C 1533.570312 1779.171875 1483.078125 1662.921875 1476.609375 1655.171875 C 1457.371094 1662.570312 1457.148438 1663.421875 1437.480469 1653.78125 L 1394.160156 1754.488281 C 1389.960938 1763.648438 1381.421875 1778.179688 1378.828125 1786.921875 "/>
<path fill-rule="evenodd" fill="rgb(61.914062%, 39.988708%, 7.006836%)" fill-opacity="1" d="M 1046.910156 2001.707031 C 1095.210938 2011.902344 1101.121094 2016.441406 1157.011719 2017.191406 C 1194.691406 2017.695312 1236.988281 2014.144531 1269.070312 2001.261719 L 1266.210938 1939.015625 C 1235.738281 1933.890625 1159.160156 1938.40625 1124.398438 1938.664062 C 1106.378906 1938.796875 1070.710938 1937.335938 1054.691406 1939.527344 C 1044.898438 1940.871094 1047.398438 1942.808594 1046.960938 1965.1875 C 1046.730469 1977.351562 1046.910156 1989.539062 1046.910156 2001.707031 "/>
<path fill-rule="evenodd" fill="rgb(100%, 100%, 100%)" fill-opacity="1" d="M 2104.5 1495.820312 C 2137.351562 1493.511719 2166.238281 1481.828125 2187.070312 1467.300781 C 2190.148438 1400.808594 2164.460938 1308.71875 2133.980469 1265.140625 C 2128.140625 1289.679688 2131.589844 1301.25 2121.480469 1327.328125 C 2105.078125 1369.621094 2074.390625 1397.671875 2078.859375 1432.429688 C 2082.78125 1462.871094 2088.601562 1460.570312 2084.761719 1497.210938 L 2104.5 1495.820312 "/>
<path fill-rule="evenodd" fill="rgb(100%, 100%, 100%)" fill-opacity="1" d="M 796.050781 1506.761719 C 799.042969 1486.679688 806.699219 1451.980469 802.550781 1432.851562 C 798.410156 1413.769531 782.9375 1395.058594 780.433594 1376.050781 C 777.496094 1353.738281 791.394531 1331.941406 793.320312 1307.730469 C 794.503906 1292.828125 791.667969 1251.789062 785.894531 1240.199219 C 765.492188 1269.871094 746.621094 1304.421875 732.316406 1342.640625 C 720.285156 1374.789062 702.421875 1437.851562 708.964844 1476.03125 C 728.234375 1492.558594 764.832031 1503.71875 796.050781 1506.761719 "/>
<path fill-rule="evenodd" fill="rgb(61.914062%, 39.988708%, 7.006836%)" fill-opacity="1" d="M 1605.050781 1933.871094 C 1601.488281 1975.742188 1584.359375 1989.269531 1608.761719 1995.929688 C 1675.671875 2014.179688 1761.421875 2010.6875 1825.628906 1990.261719 L 1821.46875 1933.425781 L 1605.050781 1933.871094 "/>
<path fill-rule="evenodd" fill="rgb(0%, 0%, 0%)" fill-opacity="1" d="M 1753.378906 1790.769531 L 1935.890625 1789.378906 C 1936.410156 1775.628906 1937.871094 1748.101562 1934.390625 1735.820312 C 1890.621094 1731.460938 1800.300781 1732.121094 1756.171875 1736.179688 C 1751.949219 1746.308594 1752.101562 1778.761719 1753.378906 1790.769531 "/>
<path fill-rule="evenodd" fill="rgb(0%, 0%, 0%)" fill-opacity="1" d="M 947.359375 1796.820312 C 972.382812 1799.421875 1051.511719 1798.609375 1083.101562 1797.769531 C 1138.238281 1796.320312 1133.351562 1807.808594 1129.300781 1742.671875 L 946.78125 1743.199219 L 947.359375 1796.820312 "/>
<path fill-rule="evenodd" fill="rgb(100%, 100%, 100%)" fill-opacity="1" d="M 1207.46875 1579.101562 C 1233.699219 1595.769531 1319.808594 1660.96875 1336.261719 1666.039062 C 1339.921875 1657.671875 1392.738281 1584.941406 1400.789062 1575.570312 C 1396 1571.398438 1359.921875 1563.929688 1353.121094 1562.460938 C 1307.691406 1552.699219 1299.660156 1583.398438 1207.46875 1579.101562 "/>
<path fill-rule="evenodd" fill="rgb(100%, 100%, 100%)" fill-opacity="1" d="M 1187.921875 2256.855469 C 1168.378906 2257.566406 1166.980469 2259.492188 1145.539062 2255.679688 C 1144.261719 2281.425781 1131.019531 2389.1875 1137.039062 2404.214844 C 1140.949219 2411.632812 1147.289062 2413.285156 1159.191406 2413.355469 C 1199.71875 2413.59375 1195.988281 2388.652344 1194.890625 2363.039062 C 1193.480469 2330.1875 1191.839844 2289.679688 1187.921875 2256.855469 "/>
<path fill-rule="evenodd" fill="rgb(99.021912%, 99.021912%, 99.021912%)" fill-opacity="1" d="M 1526.519531 1561.320312 C 1535.328125 1578.308594 1549.289062 1593.269531 1561.339844 1606.488281 L 1600.539062 1649.238281 L 1669.589844 1605.949219 C 1689.730469 1592.75 1720.859375 1575.609375 1736.851562 1561.210938 C 1719.738281 1549.460938 1657.378906 1574.96875 1633.050781 1578.089844 C 1611.71875 1580.828125 1593.289062 1579.238281 1573.839844 1574.539062 C 1558.800781 1570.898438 1539.78125 1562.898438 1526.519531 1561.320312 "/>
<path fill-rule="evenodd" fill="rgb(100%, 100%, 100%)" fill-opacity="1" d="M 1726.921875 2253.316406 C 1703.039062 2257.9375 1701.519531 2255.609375 1679.488281 2252.296875 C 1678.628906 2275.894531 1678.5 2299.421875 1677.691406 2322.972656 C 1676.980469 2343.628906 1672.46875 2370.429688 1672.949219 2388.644531 C 1683.839844 2395.757812 1695.78125 2406.996094 1716.378906 2398.441406 C 1731.210938 2392.277344 1732.039062 2378.699219 1730.328125 2359.234375 C 1727.371094 2325.578125 1728.640625 2287.613281 1726.921875 2253.316406 "/>
<path fill-rule="evenodd" fill="rgb(98.046875%, 98.046875%, 31.005859%)" fill-opacity="1" d="M 1725.261719 2152.300781 L 1728.410156 2026.183594 L 1674.941406 2026.871094 C 1675.171875 2056.414062 1676.53125 2085.402344 1677.378906 2115.21875 C 1677.589844 2122.601562 1677.699219 2129.765625 1677.660156 2137.148438 C 1677.589844 2147.992188 1675.851562 2149.925781 1684.289062 2153.105469 C 1697.78125 2158.1875 1712.878906 2154.675781 1725.261719 2152.300781 "/>
<path fill-rule="evenodd" fill="rgb(83.984375%, 11.009216%, 7.006836%)" fill-opacity="1" d="M 1417.421875 1572.679688 C 1408.53125 1584.75 1423.128906 1605.078125 1429.078125 1617.078125 C 1435.769531 1630.589844 1445.121094 1648.050781 1467.289062 1642.921875 C 1488.371094 1638.050781 1507.25 1583.550781 1511.539062 1555.949219 C 1491.328125 1541.058594 1440.121094 1569.019531 1417.421875 1572.679688 "/>
<path fill-rule="evenodd" fill="rgb(98.046875%, 98.046875%, 31.005859%)" fill-opacity="1" d="M 1144.570312 2040.402344 L 1146.640625 2151.859375 C 1165.148438 2156.597656 1188.609375 2160.515625 1191 2140.292969 C 1191.441406 2136.496094 1191.398438 2130.253906 1191.550781 2126.175781 L 1194.410156 2036.769531 L 1144.570312 2040.402344 "/>
<path fill-rule="evenodd" fill="rgb(99.021912%, 99.021912%, 99.021912%)" fill-opacity="1" d="M 1012.550781 2456.554688 C 1014.460938 2466.886719 1027.03125 2480.285156 1034.589844 2485.46875 C 1048.339844 2494.890625 1063.179688 2486.671875 1061.550781 2469.816406 C 1058.378906 2437.046875 1006.449219 2423.65625 1012.550781 2456.554688 "/>
<path fill-rule="evenodd" fill="rgb(99.021912%, 99.021912%, 99.021912%)" fill-opacity="1" d="M 1854.96875 2458.730469 C 1870.890625 2431.894531 1825.53125 2418.472656 1807.78125 2450.753906 C 1790.640625 2481.921875 1839.761719 2484.355469 1854.96875 2458.730469 "/>
<path fill-rule="evenodd" fill="rgb(99.021912%, 99.021912%, 99.021912%)" fill-opacity="1" d="M 1681.070312 2167.460938 L 1681.191406 2197.84375 C 1694.480469 2204.148438 1713.738281 2202.328125 1726.320312 2197.097656 L 1725.570312 2166.585938 C 1703.800781 2170.027344 1704.441406 2170.90625 1681.070312 2167.460938 "/>
<path fill-rule="evenodd" fill="rgb(99.021912%, 99.021912%, 99.021912%)" fill-opacity="1" d="M 1146.488281 2196.878906 C 1161.261719 2205.390625 1172.210938 2202.101562 1188.148438 2198.902344 L 1188.839844 2169.917969 C 1167.441406 2174.644531 1169.039062 2176.070312 1146.980469 2170.460938 L 1146.488281 2196.878906 "/>
<path fill-rule="evenodd" fill="rgb(99.021912%, 99.021912%, 99.021912%)" fill-opacity="1" d="M 1680.660156 2235.003906 C 1695.699219 2241.703125 1710.511719 2239.890625 1726.140625 2236.027344 L 1726.75 2216.816406 C 1707 2218.679688 1700.789062 2219.96875 1680.488281 2216.296875 L 1680.660156 2235.003906 "/>
<path fill-rule="evenodd" fill="rgb(99.021912%, 99.021912%, 99.021912%)" fill-opacity="1" d="M 1145.988281 2237.457031 C 1166.539062 2242.148438 1167.929688 2242.683594 1187.988281 2237.15625 L 1188.191406 2217.773438 C 1167.371094 2220.980469 1165.808594 2219.421875 1145.929688 2217.902344 L 1145.988281 2237.457031 "/>
<path fill-rule="evenodd" fill="rgb(41.992188%, 59.959412%, 94.921875%)" fill-opacity="1" d="M 1679.199219 2235.003906 L 1680.660156 2235.003906 L 1680.488281 2216.296875 C 1700.789062 2219.96875 1707 2218.679688 1726.75 2216.816406 L 1726.320312 2197.097656 C 1713.738281 2202.328125 1694.480469 2204.148438 1681.191406 2197.84375 L 1681.070312 2167.460938 L 1679.199219 2235.003906 "/>
<path fill-rule="evenodd" fill="rgb(83.984375%, 11.009216%, 7.006836%)" fill-opacity="1" d="M 1679.488281 2252.296875 C 1701.519531 2255.609375 1703.039062 2257.9375 1726.921875 2253.316406 L 1726.140625 2236.027344 C 1710.511719 2239.890625 1695.699219 2241.703125 1680.660156 2235.003906 L 1679.199219 2235.003906 L 1679.488281 2252.296875 "/>
<path fill-rule="evenodd" fill="rgb(41.992188%, 59.959412%, 94.921875%)" fill-opacity="1" d="M 1145.929688 2217.902344 C 1165.808594 2219.421875 1167.371094 2220.980469 1188.191406 2217.773438 L 1188.148438 2198.902344 C 1172.210938 2202.101562 1161.261719 2205.390625 1146.488281 2196.878906 L 1145.929688 2217.902344 "/>
<path fill-rule="evenodd" fill="rgb(82.03125%, 10.009766%, 7.006836%)" fill-opacity="1" d="M 1145.539062 2255.679688 C 1166.980469 2259.492188 1168.378906 2257.566406 1187.921875 2256.855469 L 1187.988281 2237.15625 C 1167.929688 2242.683594 1166.539062 2242.148438 1145.988281 2237.457031 L 1145.539062 2255.679688 "/>
<path fill-rule="evenodd" fill="rgb(50.976562%, 63.084412%, 63.084412%)" fill-opacity="1" d="M 1683.230469 2524.425781 L 1717.070312 2523.523438 C 1712.660156 2513.085938 1703.519531 2505.867188 1689.089844 2504.589844 L 1683.230469 2524.425781 "/>
<path fill-rule="evenodd" fill="rgb(50.976562%, 63.084412%, 63.084412%)" fill-opacity="1" d="M 1180.96875 2510.714844 C 1170.980469 2514.628906 1161.699219 2521.675781 1155.980469 2530.9375 L 1181.519531 2538.476562 L 1180.96875 2510.714844 "/>
<path fill-rule="nonzero" fill="rgb(59.959412%, 59.959412%, 13.989258%)" fill-opacity="1" d="M 896.800781 312.960938 C 915.289062 300.25 942.710938 310.390625 950.417969 330.878906 C 965.269531 366.929688 950.921875 414.851562 915.078125 432.550781 C 897.371094 441.480469 873.160156 435.769531 864.171875 417.199219 C 847.246094 380.871094 862.882812 333.808594 896.800781 312.960938 "/>
<path fill-rule="nonzero" fill="rgb(60.9375%, 59.959412%, 13.989258%)" fill-opacity="1" d="M 2010.511719 341.519531 C 2024.21875 333.160156 2044.488281 335.230469 2054.851562 348.019531 C 2080.988281 385.78125 2027.441406 451.328125 1986.949219 422.488281 C 1968.808594 395.921875 1983.941406 356.871094 2010.511719 341.519531 "/>
<path fill-rule="nonzero" fill="rgb(7.006836%, 5.999756%, 4.998779%)" fill-opacity="1" d="M 1179.980469 355.800781 C 1189.320312 355.300781 1198.679688 354.789062 1208.039062 354.371094 C 1210.75 372.359375 1212.890625 390.429688 1213.890625 408.628906 C 1248.730469 413.140625 1281.441406 425.699219 1314.210938 437.621094 C 1332.988281 428.058594 1342.480469 404.480469 1357.839844 389.71875 C 1364.828125 396.210938 1372.039062 402.570312 1379.539062 408.558594 C 1367.96875 424.421875 1357.261719 440.898438 1346.339844 457.261719 C 1379.46875 485.96875 1408.820312 520.019531 1427.378906 559.929688 C 1438.160156 582.570312 1442.800781 607.421875 1450.511719 631.121094 C 1465.859375 557.71875 1509.558594 490.539062 1574.609375 451.898438 C 1567.96875 438.261719 1560.828125 424.769531 1556.328125 410.199219 C 1563.109375 402.070312 1571.179688 395.28125 1578.960938 388.140625 C 1587.960938 404.058594 1596.890625 419.988281 1605.308594 436.199219 C 1637.441406 423.351562 1671.710938 417.058594 1706.199219 415.28125 C 1707.410156 397.140625 1708.480469 379 1710.691406 360.949219 C 1720.980469 362.148438 1731.261719 363.371094 1741.539062 364.660156 C 1742.96875 382.359375 1736.328125 402.628906 1747.039062 418.421875 C 1777.890625 426.699219 1808.730469 435.410156 1836.929688 450.769531 C 1846.21875 435.191406 1853.851562 418.351562 1866.28125 404.921875 C 1879.988281 400.351562 1886.699219 417.140625 1896.410156 423.628906 C 1885.628906 439.128906 1876.558594 455.761719 1867.5 472.261719 C 1905.191406 507.878906 1937.328125 551.21875 1951.25 601.851562 C 1975.449219 687.03125 1952.03125 785.628906 1888.550781 848.320312 C 1840.859375 895.800781 1774.539062 925.511719 1706.910156 925.078125 C 1641.148438 926.21875 1577.25 899.019531 1528.128906 856.101562 C 1508.28125 896.519531 1497.78125 940.210938 1486.28125 983.421875 C 1473 910.730469 1526.199219 846.75 1521.699219 774.710938 C 1517.421875 740.511719 1508.558594 701.589844 1477.859375 681.460938 C 1453.648438 667.679688 1420.449219 678.171875 1407.101562 702.378906 C 1377.539062 748.148438 1390.320312 805.121094 1398.320312 855.320312 C 1403.03125 895.589844 1419.878906 933.859375 1418.738281 974.839844 C 1401.601562 932.648438 1388.179688 889.089844 1374.261719 845.75 C 1332.921875 880.589844 1284.148438 912.078125 1228.601562 915.148438 C 1182.191406 917.578125 1133.628906 916.511719 1090.371094 897.378906 C 1005.761719 859.890625 944.566406 773.570312 939.28125 680.890625 C 933.785156 593.058594 977.339844 506.308594 1048.308594 455.121094 C 1040.460938 440.980469 1032.808594 426.699219 1025.890625 412.070312 C 1034.308594 407.210938 1042.738281 402.28125 1051.089844 397.429688 C 1058.378906 411.628906 1065.449219 425.839844 1072.660156 440.050781 C 1107.078125 424.980469 1143.058594 413.351562 1180.539062 408.78125 C 1180.480469 391.070312 1180.121094 373.429688 1179.980469 355.800781 Z M 1007.96875 510.308594 C 952.207031 577 937.425781 674.601562 968.914062 755.359375 C 991.472656 804.699219 1026.820312 851.320312 1076.371094 875.808594 C 1135.210938 908.371094 1207.609375 913.730469 1271.648438 895.089844 C 1311.28125 884.019531 1342.980469 856.890625 1373.398438 830.621094 C 1366.539062 800.121094 1366.398438 768.78125 1367.691406 737.730469 C 1369.261719 697.378906 1396.890625 658.039062 1437.519531 648.96875 C 1429.171875 567.570312 1382.039062 489.320312 1307.851562 452.128906 C 1210.320312 399.070312 1078.441406 424.421875 1007.96875 510.308594 Z M 1556.96875 480.890625 C 1504.28125 520.101562 1470.359375 581.28125 1462.078125 646.179688 C 1487 654.679688 1510.210938 670.390625 1521.699219 694.878906 C 1549.121094 739.441406 1541.691406 793.769531 1535.621094 843.039062 C 1596.890625 903.730469 1691.28125 925.511719 1773.890625 903.230469 C 1827.148438 888.171875 1873.140625 852.609375 1905.550781 808.328125 C 1972.308594 712.730469 1957.101562 568 1867.628906 491.671875 C 1784.960938 413.199219 1645.371094 410.058594 1556.96875 480.890625 "/>
<path fill-rule="nonzero" fill="rgb(99.021912%, 99.021912%, 99.021912%)" fill-opacity="1" d="M 1007.96875 510.308594 C 1078.441406 424.421875 1210.320312 399.070312 1307.851562 452.128906 C 1382.039062 489.320312 1429.171875 567.570312 1437.519531 648.96875 C 1396.890625 658.039062 1369.261719 697.378906 1367.691406 737.730469 C 1366.398438 768.78125 1366.539062 800.121094 1373.398438 830.621094 C 1342.980469 856.890625 1311.28125 884.019531 1271.648438 895.089844 C 1207.609375 913.730469 1135.210938 908.371094 1076.371094 875.808594 C 1026.820312 851.320312 991.472656 804.699219 968.914062 755.359375 C 937.425781 674.601562 952.207031 577 1007.96875 510.308594 Z M 1202.960938 584.851562 C 1140.921875 598.640625 1102.929688 669.460938 1124.710938 729.011719 C 1141.128906 788.628906 1212.601562 821.550781 1269.441406 800.339844 C 1328.421875 777.210938 1362.761719 699.808594 1331.628906 642.609375 C 1309.058594 595.921875 1252.800781 571.570312 1202.960938 584.851562 "/>
<path fill-rule="nonzero" fill="rgb(99.021912%, 99.021912%, 99.021912%)" fill-opacity="1" d="M 1556.96875 480.890625 C 1645.371094 410.058594 1784.960938 413.199219 1867.628906 491.671875 C 1957.101562 568 1972.308594 712.730469 1905.550781 808.328125 C 1873.140625 852.609375 1827.148438 888.171875 1773.890625 903.230469 C 1691.28125 925.511719 1596.890625 903.730469 1535.621094 843.039062 C 1541.691406 793.769531 1549.121094 739.441406 1521.699219 694.878906 C 1510.210938 670.390625 1487 654.679688 1462.078125 646.179688 C 1470.359375 581.28125 1504.28125 520.101562 1556.96875 480.890625 Z M 1644.941406 575.851562 C 1574.039062 592.558594 1540.910156 688.878906 1583.820312 746.789062 C 1611.449219 786.851562 1664.640625 806.269531 1711.550781 792.839844 C 1760.179688 772.488281 1794.808594 721.160156 1789.320312 667.679688 C 1783.660156 600.921875 1707.980469 553.371094 1644.941406 575.851562 "/>
<path fill-rule="nonzero" fill="rgb(59.959412%, 58.006287%, 12.988281%)" fill-opacity="1" d="M 859.667969 483.539062 C 867.027344 472.320312 884.84375 464.921875 893.085938 472.46875 C 901.328125 480 888.800781 499.808594 880.378906 510.808594 C 871.878906 519.089844 859.300781 534.511719 848.890625 525.589844 C 838.472656 516.671875 849.246094 494.878906 859.667969 483.539062 "/>
<path fill-rule="nonzero" fill="rgb(4.998779%, 7.006836%, 7.006836%)" fill-opacity="1" d="M 1644.941406 575.851562 C 1707.980469 553.371094 1783.660156 600.921875 1789.320312 667.679688 C 1794.808594 721.160156 1760.179688 772.488281 1711.550781 792.839844 C 1664.640625 806.269531 1611.449219 786.851562 1583.820312 746.789062 C 1540.910156 688.878906 1574.039062 592.558594 1644.941406 575.851562 Z M 1638.300781 590.859375 C 1605.171875 601.699219 1583.25 633.691406 1577.46875 667.03125 C 1566.761719 724.511719 1617.730469 788.988281 1678.210938 782.128906 C 1733.691406 781.988281 1780.03125 728.230469 1775.53125 673.671875 C 1775.320312 633.550781 1743.828125 598.28125 1706.410156 587.070312 C 1683.988281 582.210938 1659.929688 583.058594 1638.300781 590.859375 "/>
<path fill-rule="nonzero" fill="rgb(4.998779%, 7.006836%, 7.006836%)" fill-opacity="1" d="M 1202.960938 584.851562 C 1252.800781 571.570312 1309.058594 595.921875 1331.628906 642.609375 C 1362.761719 699.808594 1328.421875 777.210938 1269.441406 800.339844 C 1212.601562 821.550781 1141.128906 788.628906 1124.710938 729.011719 C 1102.929688 669.460938 1140.921875 598.640625 1202.960938 584.851562 Z M 1202.679688 598.488281 C 1152.410156 610.921875 1121.488281 666.679688 1134.351562 716.300781 C 1144.351562 776.710938 1220.460938 813.691406 1273.789062 783.058594 C 1341.480469 754.71875 1346.769531 647.039062 1286.078125 608.769531 C 1261.730469 592.851562 1230.308594 589.640625 1202.679688 598.488281 "/>
<path fill-rule="nonzero" fill="rgb(43.992615%, 73.046875%, 93.943787%)" fill-opacity="1" d="M 1638.300781 590.859375 C 1659.929688 583.058594 1683.988281 582.210938 1706.410156 587.070312 C 1743.828125 598.28125 1775.320312 633.550781 1775.53125 673.671875 C 1780.03125 728.230469 1733.691406 781.988281 1678.210938 782.128906 C 1617.730469 788.988281 1566.761719 724.511719 1577.46875 667.03125 C 1583.25 633.691406 1605.171875 601.699219 1638.300781 590.859375 Z M 1652.289062 625.558594 C 1605.308594 642.191406 1604.671875 717.941406 1647.859375 739.441406 C 1684.058594 759.921875 1740.46875 740.011719 1744.179688 695.171875 C 1758.179688 643.898438 1697.628906 601.050781 1652.289062 625.558594 "/>
<path fill-rule="nonzero" fill="rgb(42.993164%, 73.046875%, 93.943787%)" fill-opacity="1" d="M 1202.679688 598.488281 C 1230.308594 589.640625 1261.730469 592.851562 1286.078125 608.769531 C 1346.769531 647.039062 1341.480469 754.71875 1273.789062 783.058594 C 1220.460938 813.691406 1144.351562 776.710938 1134.351562 716.300781 C 1121.488281 666.679688 1152.410156 610.921875 1202.679688 598.488281 Z M 1210.609375 635.609375 C 1166.621094 648.398438 1151.058594 713.730469 1188.898438 742.21875 C 1224.378906 776.921875 1293.859375 753.929688 1295.640625 702.378906 C 1303.78125 655.898438 1253.519531 618.199219 1210.609375 635.609375 "/>
<path fill-rule="nonzero" fill="rgb(9.008789%, 8.006287%, 9.008789%)" fill-opacity="1" d="M 1652.289062 625.558594 C 1697.628906 601.050781 1758.179688 643.898438 1744.179688 695.171875 C 1740.46875 740.011719 1684.058594 759.921875 1647.859375 739.441406 C 1604.671875 717.941406 1605.308594 642.191406 1652.289062 625.558594 "/>
<path fill-rule="nonzero" fill="rgb(9.008789%, 8.006287%, 9.008789%)" fill-opacity="1" d="M 1210.609375 635.609375 C 1253.519531 618.199219 1303.78125 655.898438 1295.640625 702.378906 C 1293.859375 753.929688 1224.378906 776.921875 1188.898438 742.21875 C 1151.058594 713.730469 1166.621094 648.398438 1210.609375 635.609375 "/>
<path fill-rule="nonzero" fill="rgb(68.943787%, 34.008789%, 14.988708%)" fill-opacity="1" d="M 979.765625 931.71875 C 986.765625 921.011719 1005.039062 932.648438 996.617188 943.148438 C 989.617188 953.851562 971.339844 942.210938 979.765625 931.71875 "/>
<path fill-rule="nonzero" fill="rgb(68.943787%, 34.008789%, 14.988708%)" fill-opacity="1" d="M 1078.441406 932.359375 C 1090.078125 928.71875 1094.078125 932.648438 1090.371094 944.210938 C 1078.660156 947.929688 1074.660156 944 1078.441406 932.359375 "/>
<path fill-rule="nonzero" fill="rgb(68.943787%, 34.008789%, 14.988708%)" fill-opacity="1" d="M 1840 949.710938 C 1836.179688 945.808594 1838.28125 936.179688 1841.71875 932.460938 C 1845.140625 928.730469 1850.941406 923.75 1860.5 927.289062 C 1870.050781 930.828125 1865.25 960.53125 1840 949.710938 "/>
<path fill-rule="nonzero" fill="rgb(68.943787%, 34.008789%, 14.988708%)" fill-opacity="1" d="M 1944.25 932.648438 C 1956.601562 928.511719 1962.671875 949.140625 1949.601562 951.859375 C 1937.328125 955.78125 1931.191406 935.289062 1944.25 932.648438 "/>
<path fill-rule="nonzero" fill="rgb(68.943787%, 34.008789%, 14.988708%)" fill-opacity="1" d="M 1035.890625 997.550781 C 1046.238281 989.199219 1058.308594 1007.121094 1047.671875 1014.261719 C 1037.238281 1022.679688 1025.25 1004.691406 1035.890625 997.550781 "/>
<path fill-rule="nonzero" fill="rgb(68.943787%, 34.008789%, 14.988708%)" fill-opacity="1" d="M 1886.128906 996.339844 C 1899.699219 991.839844 1905.339844 1014.191406 1891.628906 1017.179688 C 1877.988281 1021.828125 1872.421875 999.261719 1886.128906 996.339844 "/>
<path fill-rule="nonzero" fill="rgb(4.998779%, 3.999329%, 4.998779%)" fill-opacity="1" d="M 1289.789062 1184.261719 C 1364.621094 1184.96875 1439.449219 1172.480469 1514.199219 1181.121094 C 1544.828125 1184.550781 1575.75 1183.328125 1606.460938 1186.261719 C 1702.269531 1196.691406 1799.878906 1195.898438 1893.910156 1219.390625 C 1812.019531 1216.460938 1730.328125 1208.179688 1648.289062 1207.191406 C 1648.578125 1245.378906 1646.71875 1283.578125 1646.941406 1321.78125 C 1597.960938 1333.351562 1547.398438 1322.070312 1497.640625 1325.558594 C 1493.640625 1285.941406 1497.140625 1246.171875 1498.988281 1206.539062 C 1490.28125 1206.039062 1481.570312 1205.539062 1472.859375 1205.109375 C 1473.5 1245.449219 1473.429688 1285.789062 1474.21875 1326.128906 C 1427.308594 1340.128906 1377.679688 1329.5 1329.78125 1327.78125 C 1329.78125 1286.371094 1333.558594 1245.238281 1338.269531 1204.179688 C 1246.171875 1202.679688 1154.628906 1213.179688 1062.878906 1219.53125 C 1136.28125 1196.96875 1213.460938 1189.328125 1289.789062 1184.261719 Z M 1351.050781 1203.898438 C 1348.050781 1240.171875 1342.910156 1276.300781 1344.128906 1312.789062 C 1382.75 1313.429688 1421.449219 1313.710938 1460.078125 1314.710938 C 1459.871094 1277.800781 1460.078125 1240.808594 1459.71875 1203.898438 C 1423.519531 1201.898438 1387.25 1203.96875 1351.050781 1203.898438 Z M 1511.769531 1205.691406 C 1511.128906 1239.03125 1509.699219 1272.441406 1510.210938 1305.859375 C 1551.328125 1309.21875 1592.53125 1304.570312 1633.730469 1307.359375 C 1634.941406 1273.730469 1634.941406 1240.101562 1634.078125 1206.46875 C 1593.308594 1203.96875 1552.539062 1209.039062 1511.769531 1205.691406 "/>
<path fill-rule="nonzero" fill="rgb(99.021912%, 99.021912%, 99.021912%)" fill-opacity="1" d="M 1351.050781 1203.898438 C 1387.25 1203.96875 1423.519531 1201.898438 1459.71875 1203.898438 C 1460.078125 1240.808594 1459.871094 1277.800781 1460.078125 1314.710938 C 1421.449219 1313.710938 1382.75 1313.429688 1344.128906 1312.789062 C 1342.910156 1276.300781 1348.050781 1240.171875 1351.050781 1203.898438 "/>
<path fill-rule="nonzero" fill="rgb(100%, 100%, 100%)" fill-opacity="1" d="M 1511.769531 1205.691406 C 1552.539062 1209.039062 1593.308594 1203.96875 1634.078125 1206.46875 C 1634.941406 1240.101562 1634.941406 1273.730469 1633.730469 1307.359375 C 1592.53125 1304.570312 1551.328125 1309.21875 1510.210938 1305.859375 C 1509.699219 1272.441406 1511.128906 1239.03125 1511.769531 1205.691406 "/>
<path fill-rule="nonzero" fill="rgb(60.9375%, 59.959412%, 13.989258%)" fill-opacity="1" d="M 1952.601562 1220.039062 C 1979.238281 1210.609375 2019.578125 1214.179688 2028.359375 1246.238281 C 2046.859375 1306.929688 1988.449219 1370.761719 1928.109375 1370.621094 C 1904.550781 1371.691406 1881.628906 1353.199219 1879.910156 1329.28125 C 1872.640625 1281.078125 1908.910156 1235.890625 1952.601562 1220.039062 "/>
<path fill-rule="nonzero" fill="rgb(60.9375%, 59.959412%, 13.989258%)" fill-opacity="1" d="M 1060.449219 1291.648438 C 1081.089844 1285.078125 1106.5 1297.011719 1112.070312 1318.640625 C 1122.429688 1357.050781 1110.070312 1405.25 1073.871094 1425.878906 C 1055.449219 1437.089844 1026.390625 1435.738281 1015.679688 1414.671875 C 993.117188 1371.398438 1012.890625 1308.359375 1060.449219 1291.648438 "/>
<path fill-rule="nonzero" fill="rgb(58.984375%, 58.006287%, 12.988281%)" fill-opacity="1" d="M 960.058594 1239.320312 C 968.96875 1231.148438 981.195312 1241.960938 989.476562 1248.738281 C 993.902344 1261.730469 984.835938 1275.519531 971.628906 1277.800781 C 951.210938 1280.660156 951.152344 1247.46875 960.058594 1239.320312 "/>
<path fill-rule="nonzero" fill="rgb(86.914062%, 58.006287%, 58.984375%)" fill-opacity="1" d="M 1256.519531 1346.769531 C 1296.859375 1359.621094 1336.628906 1377.191406 1379.539062 1379.191406 C 1415.378906 1381.398438 1450.011719 1369.050781 1485.710938 1368.980469 C 1524.058594 1368.339844 1561.398438 1379.550781 1599.738281 1379.550781 C 1629.230469 1380.261719 1658.011719 1373.121094 1686.851562 1368.339844 C 1669.429688 1382.398438 1651.429688 1398.890625 1628.019531 1400.96875 C 1575.460938 1407.390625 1523.769531 1387.539062 1471.148438 1392.761719 C 1428.171875 1396.539062 1383.96875 1408.75 1341.339844 1395.96875 C 1309.210938 1387.328125 1281.011719 1368.761719 1256.519531 1346.769531 "/>
<path fill-rule="nonzero" fill="rgb(59.959412%, 59.959412%, 12.988281%)" fill-opacity="1" d="M 1806.160156 1393.679688 C 1809.109375 1380.128906 1851.980469 1350.589844 1858.070312 1357.628906 C 1864.148438 1364.660156 1832.820312 1405.261719 1822.71875 1407.820312 C 1812.621094 1410.378906 1803.21875 1407.238281 1806.160156 1393.679688 "/>
</svg>
